# xmcd
#
# Track frame offsets:
# 150
# 21296
# 45900
# 67331
# 88318
# 107745
# 131136
# 149496
#
# Disc length: 2253 seconds
#
# Revision: 0
# Processed by: cddbd v1.4PL0 Copyright (c) Steve Scherf et al.
# Submitted via: Axialis_AX_CDPlayer 2.6
#
DISCID=7808cb08
DTITLE=Chess Brothers - Blues From The Hammer
DYEAR=1900
DGENRE=
TTITLE0=Can't Judge A Book By It's Cover
TTITLE1=Hootchie Cootchie Man
TTITLE2=Cold Cold Feeling
TTITLE3=Key To The Highway
TTITLE4=Cissy Strut
TTITLE5=Have You Ever Loved A Woman
TTITLE6=Hideaway
TTITLE7=Shake Your Hips
EXTD=Produced by Bobby Hebert   Executive Producer - Bryon Walpole   Mixed 
EXTD=\n& Mastered by Steve Negus
EXTT0=
EXTT1=
EXTT2=
EXTT3=
EXTT4=
EXTT5=
EXTT6=
EXTT7=
PLAYORDER=
